<?xml version="1.0" encoding="UTF-8"?>
<svg version="1.1" width="300px" height="65px"  viewBox="0 0 300 65" xmlns="http://www.w3.org/2000/svg">
 <defs>
  <style>.cls-1 {
        fill: #fff;
      }

      .cls-2 {
        fill: #6c6d6d;
      }

      .cls-3 {
        fill: #2b75ba;
      }</style>
 </defs>
 <g transform="scale(.30999 .30656)" data-name="Layer_1">
  <rect class="cls-3" x="348.58" width="619.18" height="209.46"/>
  <path class="cls-1" d="m438.24 160.14c-9.17 0-18-1.01-26.48-3.04s-15.5-4.76-21.04-8.21l9.44-25.23c3.41 1.93 7.25 3.62 11.52 5.09s8.69 2.64 13.28 3.5c4.58 0.86 9.12 1.29 13.6 1.29 6.29 0 10.51-0.63 12.64-1.9s3.2-2.81 3.2-4.64c0-1.72-0.67-3.09-2-4.1s-4.08-1.92-8.24-2.74l-20.32-3.95c-10.35-2.03-18.11-5.62-23.28-10.79s-7.76-11.86-7.76-20.06c0-7.3 2.08-13.63 6.24-19s10.02-9.55 17.6-12.54c7.57-2.99 16.43-4.48 26.56-4.48 8 0 15.57 1.01 22.72 3.04s12.96 4.76 17.44 8.21l-9.44 23.71c-4.06-2.63-8.72-4.69-14-6.16s-11.12-2.2-17.52-2.2c-5.33 0-9.31 0.61-11.92 1.82-2.62 1.22-3.92 2.99-3.92 5.32 0 1.42 0.75 2.74 2.24 3.95 1.49 1.22 4.37 2.23 8.64 3.04l20 3.8c10.13 1.93 17.78 5.47 22.96 10.64 5.17 5.17 7.76 11.81 7.76 19.91 0 7.2-2.08 13.48-6.24 18.85s-9.98 9.53-17.44 12.46c-7.47 2.94-16.22 4.41-26.24 4.41z"/>
  <path class="cls-1" d="m524 158.31v-80.71h-32.64v-26.45h99.84v26.45h-32.64v80.71z"/>
  <path class="cls-1" d="m590.72 104.66c0-11.04 2.37-20.72 7.12-29.03 4.74-8.31 11.49-14.77 20.24-19.38s19.09-6.92 31.04-6.92 22.45 2.31 31.2 6.92c8.74 4.61 15.52 11.07 20.32 19.38s7.2 17.99 7.2 29.03-2.4 20.72-7.2 29.03-11.58 14.8-20.32 19.46c-8.75 4.66-19.15 6.99-31.2 6.99s-22.29-2.33-31.04-6.99-15.5-11.17-20.24-19.53c-4.75-8.36-7.12-18.01-7.12-28.96zm36.16 0c0 8.92 1.78 15.86 5.36 20.82 3.57 4.97 9.2 7.45 16.88 7.45s13.36-2.51 17.04-7.52c3.68-5.02 5.52-11.93 5.52-20.75s-1.84-15.71-5.52-20.67-9.36-7.45-17.04-7.45-13.31 2.46-16.88 7.37c-3.58 4.92-5.36 11.83-5.36 20.75z"/>
  <path class="cls-1" d="m721.12 158.31v-107.16h55.52c13.33 0 23.62 3.04 30.88 9.12 7.25 6.08 10.88 14.49 10.88 25.23 0 7.09-1.63 13.2-4.88 18.32-3.26 5.12-8.03 9.07-14.32 11.86s-13.92 4.18-22.88 4.18l1.12-4.41h9.44c4.69 0 8.9 1.29 12.64 3.88 3.73 2.58 6.82 5.95 9.28 10.11l17.44 28.88h-37.92l-19.36-33.74c-0.85-1.52-2.24-2.61-4.16-3.27s-3.9-0.99-5.92-0.99h-3.2v38h-34.56zm34.56-60.95h14.72c4.9 0 8.64-0.89 11.2-2.66s3.84-4.48 3.84-8.13-1.28-6.18-3.84-7.9-6.29-2.58-11.2-2.58h-14.72v21.28z"/>
  <path class="cls-1" d="m833.76 158.31v-107.16h83.68v24.93h-50.72v15.35h46.88v24.93h-46.88v17.02h50.72v24.93z"/>
  <path class="cls-3" d="m0 158.96v-105.71h84.02v24.59h-50.93v15.14h47.07v24.59h-47.07v16.79h50.93v24.59h-84.02z"/>
  <path class="cls-3" d="m130.28 158.96-40.81-105.71h35.66l23.94 70.62h-7.87l27.31-70.62h24.58l24.26 70.62h-7.55l26.35-70.62h33.42l-40.97 105.71h-27.47l-23.13-61.78h3.7l-23.78 61.78h-27.63z"/>
 <path class="cls-3" d="m279.21 158.96v-105.71h34.7v105.71z"/>
 </g>
</svg>
