<?xml version="1.0" encoding="UTF-8"?>
<svg version="1.1" width="300px" height="106px"  viewBox="0 0 300 106" xmlns="http://www.w3.org/2000/svg">
 <defs>
  <style>.cls-1 {
        fill: #fff;
      }

      .cls-2 {
        fill: #6c6d6d;
      }

      .cls-3 {
        fill: #2b75ba;
      }</style>
 </defs>
 <g transform="scale(.30999 .30656)" data-name="Layer_1">
  <path class="cls-2" d="m1.66 323.19v-73.67h29.26c7.35 0 13.03 1.92 17.05 5.75s6.03 9.16 6.03 15.99c0 4.53-0.9 8.4-2.71 11.6-1.8 3.21-4.39 5.66-7.74 7.37-3.36 1.71-7.32 2.56-11.88 2.56l1.33-1.99h3.23c2.66 0 5.04 0.77 7.12 2.3 2.09 1.53 3.8 3.87 5.13 7l9.79 23.09h-13.49l-9.88-23.93c-0.89-2.44-2.23-4.04-4.04-4.81s-3.98-1.15-6.51-1.15h-10.45v29.89zm12.25-39.82h15.01c4.31 0 7.58-0.99 9.83-2.98s3.37-4.89 3.37-8.73-1.12-6.72-3.37-8.67-5.53-2.93-9.83-2.93h-15.01v23.3z"/>
  <path class="cls-2" d="m97.7 324.23c-8.04 0-14.34-2.44-18.91-7.31-4.56-4.88-6.84-11.56-6.84-20.06 0-5.5 0.98-10.31 2.95-14.42 1.96-4.11 4.7-7.31 8.22-9.61 3.51-2.3 7.61-3.45 12.3-3.45s8.49 1.08 11.59 3.24 5.46 5.19 7.08 9.09 2.42 8.46 2.42 13.69v3.45h-34.96v-6.9h26.5l-1.62 1.46c0-4.88-0.94-8.6-2.8-11.18-1.87-2.58-4.58-3.87-8.12-3.87-3.93 0-6.95 1.53-9.07 4.6s-3.18 7.35-3.18 12.85v1.36c0 5.71 1.28 9.98 3.85 12.8s6.19 4.23 10.88 4.23c2.72 0 5.27-0.4 7.65-1.2s4.64-2.11 6.79-3.92l3.51 8.78c-2.28 2.02-5 3.59-8.17 4.7s-6.52 1.67-10.07 1.67z"/>
  <path class="cls-2" d="m134.94 323.19v-39.61c0-2.16-0.06-4.35-0.19-6.58s-0.32-4.42-0.57-6.58h11.49l0.95 10.45h-1.14c1.52-3.69 3.77-6.53 6.75-8.52s6.43-2.98 10.35-2.98c5.64 0 9.88 1.74 12.73 5.23 2.85 3.48 4.27 8.92 4.27 16.3v32.29h-11.88v-31.66c0-4.25-0.75-7.3-2.23-9.14-1.49-1.85-3.72-2.77-6.7-2.77-3.67 0-6.59 1.25-8.74 3.76s-3.23 5.85-3.23 10.03v29.78h-11.88z"/>
  <path class="cls-2" d="m219.21 324.23c-4.18 0-7.87-1.1-11.07-3.29s-5.69-5.35-7.46-9.46-2.66-9.02-2.66-14.73 0.89-10.61 2.66-14.68c1.77-4.08 4.26-7.21 7.46-9.41 3.2-2.19 6.89-3.29 11.07-3.29s7.52 1.06 10.59 3.19 5.11 5 6.13 8.62h-1.23v-34.9h11.88v76.91h-11.69v-11.18h1.14c-1.01 3.76-3.06 6.74-6.13 8.94-3.07 2.19-6.63 3.29-10.69 3.29zm3.32-10.03c3.74 0 6.75-1.45 9.03-4.34s3.42-7.26 3.42-13.11-1.14-10.21-3.42-13.06c-2.28-2.86-5.29-4.28-9.03-4.28s-6.76 1.43-9.07 4.28c-2.31 2.86-3.47 7.21-3.47 13.06s1.16 10.22 3.47 13.11 5.33 4.34 9.07 4.34z"/>
  <path class="cls-2" d="m291.03 324.23c-8.04 0-14.34-2.44-18.91-7.31-4.56-4.88-6.84-11.56-6.84-20.06 0-5.5 0.98-10.31 2.95-14.42 1.96-4.11 4.7-7.31 8.22-9.61 3.51-2.3 7.61-3.45 12.3-3.45s8.49 1.08 11.59 3.24 5.46 5.19 7.08 9.09 2.42 8.46 2.42 13.69v3.45h-34.96v-6.9h26.5l-1.62 1.46c0-4.88-0.94-8.6-2.8-11.18-1.87-2.58-4.58-3.87-8.12-3.87-3.93 0-6.95 1.53-9.07 4.6s-3.18 7.35-3.18 12.85v1.36c0 5.71 1.28 9.98 3.85 12.8s6.19 4.23 10.88 4.23c2.72 0 5.27-0.4 7.65-1.2s4.64-2.11 6.79-3.92l3.51 8.78c-2.28 2.02-5 3.59-8.17 4.7s-6.52 1.67-10.07 1.67z"/>
  <path class="cls-2" d="m328.17 323.19v-39.29c0-2.23-0.05-4.49-0.14-6.79-0.1-2.3-0.27-4.53-0.52-6.69h11.49l1.33 14.42h-1.9c0.63-3.48 1.69-6.37 3.18-8.67s3.31-4.01 5.46-5.12 4.5-1.67 7.03-1.67c1.14 0 2.06 0.05 2.75 0.16 0.7 0.1 1.39 0.3 2.09 0.57l-0.09 11.5c-1.2-0.56-2.23-0.9-3.09-1.05-0.85-0.14-1.92-0.21-3.18-0.21-2.72 0-5.02 0.63-6.89 1.88s-3.26 3-4.18 5.23-1.38 4.77-1.38 7.63v28.11h-11.97z"/>
  <path class="cls-2" d="m432.67 324.23c-5.38 0-10.34-0.75-14.87-2.25s-8.41-3.57-11.64-6.22l3.8-10.55c2.15 1.67 4.4 3.08 6.74 4.23s4.85 2.02 7.51 2.61 5.48 0.89 8.45 0.89c5 0 8.61-0.9 10.83-2.72 2.22-1.81 3.33-4.18 3.33-7.11 0-2.58-0.76-4.55-2.28-5.9-1.52-1.36-4.24-2.49-8.17-3.4l-10.73-2.4c-6.14-1.39-10.74-3.73-13.78-7s-4.56-7.66-4.56-13.17c0-4.6 1.11-8.6 3.33-12.02 2.22-3.41 5.32-6.06 9.31-7.94s8.64-2.82 13.96-2.82c4.75 0 9.15 0.75 13.21 2.25 4.05 1.5 7.44 3.64 10.17 6.43l-3.8 10.03c-2.72-2.51-5.7-4.37-8.93-5.59s-6.84-1.83-10.83-1.83c-4.5 0-8 0.96-10.5 2.87-2.5 1.92-3.75 4.55-3.75 7.89 0 2.58 0.77 4.63 2.33 6.17 1.55 1.53 4.19 2.72 7.93 3.55l10.64 2.3c6.33 1.39 11.02 3.68 14.06 6.84 3.04 3.17 4.56 7.44 4.56 12.8 0 4.39-1.08 8.24-3.23 11.55s-5.19 5.89-9.12 7.73-8.58 2.77-13.97 2.77z"/>
  <path class="cls-2" d="m477.98 345.76v-62.18c0-2.16-0.06-4.35-0.19-6.58s-0.32-4.42-0.57-6.58h11.49l1.05 11.08h-1.05c0.95-3.69 2.96-6.64 6.03-8.83s6.63-3.29 10.69-3.29 7.95 1.1 11.11 3.29c3.17 2.19 5.64 5.33 7.41 9.41s2.66 8.97 2.66 14.68-0.89 10.62-2.66 14.73-4.24 7.26-7.41 9.46c-3.17 2.19-6.87 3.29-11.11 3.29-3.99 0-7.5-1.08-10.54-3.24s-5.07-5.05-6.08-8.67h1.04v33.44h-11.88zm24.13-31.56c3.8 0 6.84-1.45 9.12-4.34s3.42-7.26 3.42-13.11-1.14-10.21-3.42-13.06c-2.28-2.86-5.32-4.28-9.12-4.28s-6.75 1.43-9.03 4.28c-2.28 2.86-3.42 7.21-3.42 13.06s1.14 10.22 3.42 13.11 5.29 4.34 9.03 4.34z"/>
  <path class="cls-2" d="m568.42 324.23c-8.04 0-14.34-2.44-18.91-7.31-4.56-4.88-6.84-11.56-6.84-20.06 0-5.5 0.98-10.31 2.95-14.42 1.96-4.11 4.7-7.31 8.22-9.61 3.51-2.3 7.61-3.45 12.3-3.45s8.49 1.08 11.59 3.24 5.46 5.19 7.08 9.09 2.42 8.46 2.42 13.69v3.45h-34.96v-6.9h26.5l-1.62 1.46c0-4.88-0.94-8.6-2.8-11.18-1.87-2.58-4.58-3.87-8.12-3.87-3.93 0-6.95 1.53-9.07 4.6s-3.18 7.35-3.18 12.85v1.36c0 5.71 1.28 9.98 3.85 12.8s6.19 4.23 10.88 4.23c2.72 0 5.27-0.4 7.65-1.2s4.64-2.11 6.79-3.92l3.51 8.78c-2.28 2.02-5 3.59-8.17 4.7s-6.52 1.67-10.07 1.67z"/>
  <path class="cls-2" d="m627.7 324.23c-4.94 0-9.26-1.11-12.97-3.34s-6.57-5.42-8.6-9.56-3.04-9.07-3.04-14.79 1.03-10.59 3.09-14.63 4.92-7.14 8.6-9.3c3.67-2.16 7.98-3.24 12.92-3.24 3.17 0 6.25 0.54 9.26 1.62s5.46 2.63 7.36 4.65l-3.61 9.09c-1.71-1.74-3.63-3.05-5.75-3.92s-4.2-1.31-6.22-1.31c-4.24 0-7.55 1.46-9.93 4.39s-3.56 7.18-3.56 12.75 1.19 9.86 3.56 12.85c2.38 3 5.68 4.49 9.93 4.49 1.96 0 4-0.42 6.13-1.25 2.12-0.84 4.07-2.12 5.84-3.87l3.61 8.99c-1.96 2.02-4.45 3.59-7.46 4.7s-6.06 1.67-9.17 1.67z"/>
  <path class="cls-2" d="m661.23 260.49v-12.75h13.21v12.75zm0.67 62.7v-52.77h11.88v52.77z"/>
  <path class="cls-2" d="m713.58 324.23c-4.18 0-7.85-1.1-11.02-3.29s-5.64-5.35-7.41-9.46-2.66-9.02-2.66-14.73 0.89-10.61 2.66-14.68c1.77-4.08 4.24-7.21 7.41-9.41 3.17-2.19 6.84-3.29 11.02-3.29s7.62 1.1 10.69 3.29 5.11 5.14 6.13 8.83h-1.04l1.04-11.08h11.4c-0.19 2.16-0.37 4.35-0.52 6.58-0.16 2.23-0.24 4.42-0.24 6.58v39.61h-11.78l-0.1-10.87h1.14c-1.01 3.62-3.07 6.52-6.18 8.67-3.1 2.16-6.62 3.24-10.54 3.24zm3.32-10.03c3.74 0 6.75-1.45 9.03-4.34s3.42-7.26 3.42-13.11-1.14-10.21-3.42-13.06c-2.28-2.86-5.29-4.28-9.03-4.28s-6.75 1.43-9.02 4.28c-2.28 2.86-3.42 7.21-3.42 13.06s1.12 10.22 3.37 13.11 5.27 4.34 9.07 4.34z"/>
  <path class="cls-2" d="m762.31 323.19v-76.91h11.88v76.91z"/>
  <path class="cls-2" d="m794.8 260.49v-12.75h13.21v12.75zm0.67 62.7v-52.77h11.88v52.77z"/>
  <path class="cls-2" d="m845.72 324.23c-4.12 0-7.9-0.54-11.35-1.62s-6.35-2.59-8.69-4.55l3.32-8.78c2.41 1.81 5.07 3.21 7.98 4.18 2.91 0.98 5.86 1.46 8.83 1.46 3.17 0 5.52-0.59 7.08-1.78 1.55-1.18 2.33-2.79 2.33-4.81 0-1.6-0.49-2.87-1.47-3.81s-2.55-1.65-4.7-2.14l-9.5-1.99c-4.05-0.98-7.14-2.65-9.26-5.02s-3.18-5.47-3.18-9.3c0-3.27 0.81-6.17 2.42-8.67 1.62-2.51 3.93-4.48 6.94-5.9 3.01-1.43 6.54-2.14 10.59-2.14 3.55 0 6.89 0.52 10.02 1.57 3.13 1.04 5.78 2.61 7.93 4.7l-3.42 8.46c-1.96-1.74-4.21-3.1-6.74-4.08-2.53-0.97-5-1.46-7.41-1.46-3.29 0-5.7 0.65-7.22 1.93-1.52 1.29-2.28 2.94-2.28 4.96 0 1.53 0.46 2.81 1.38 3.81 0.92 1.01 2.36 1.76 4.32 2.25l9.5 1.99c4.24 0.91 7.46 2.49 9.64 4.75 2.19 2.26 3.28 5.35 3.28 9.25 0 3.48-0.86 6.48-2.57 8.99s-4.08 4.42-7.12 5.75c-3.04 1.32-6.59 1.99-10.64 1.99z"/>
  <path class="cls-2" d="m904.62 324.23c-5.7 0-10.01-1.64-12.92-4.91s-4.37-8.19-4.37-14.73v-24.35h-9.21v-9.82h9.21v-13.48l11.88-3.34v16.82h12.83v9.82h-12.83v23.51c0 3.62 0.63 6.17 1.9 7.63s3.01 2.19 5.22 2.19c1.2 0 2.23-0.1 3.09-0.31 0.85-0.21 1.69-0.49 2.52-0.84v10.35c-1.08 0.49-2.27 0.85-3.56 1.1-1.3 0.24-2.55 0.37-3.75 0.37z"/>
  <path class="cls-2" d="m945.57 324.23c-4.12 0-7.9-0.54-11.35-1.62s-6.35-2.59-8.69-4.55l3.32-8.78c2.41 1.81 5.07 3.21 7.98 4.18 2.91 0.98 5.86 1.46 8.83 1.46 3.17 0 5.52-0.59 7.08-1.78 1.55-1.18 2.33-2.79 2.33-4.81 0-1.6-0.49-2.87-1.47-3.81s-2.55-1.65-4.7-2.14l-9.5-1.99c-4.05-0.98-7.14-2.65-9.26-5.02s-3.18-5.47-3.18-9.3c0-3.27 0.81-6.17 2.42-8.67 1.62-2.51 3.93-4.48 6.94-5.9 3.01-1.43 6.54-2.14 10.59-2.14 3.55 0 6.89 0.52 10.02 1.57 3.13 1.04 5.78 2.61 7.93 4.7l-3.42 8.46c-1.96-1.74-4.21-3.1-6.74-4.08-2.53-0.97-5-1.46-7.41-1.46-3.29 0-5.7 0.65-7.22 1.93-1.52 1.29-2.28 2.94-2.28 4.96 0 1.53 0.46 2.81 1.38 3.81 0.92 1.01 2.36 1.76 4.32 2.25l9.5 1.99c4.24 0.91 7.46 2.49 9.64 4.75 2.19 2.26 3.28 5.35 3.28 9.25 0 3.48-0.86 6.48-2.57 8.99s-4.08 4.42-7.12 5.75c-3.04 1.32-6.59 1.99-10.64 1.99z"/>
  <rect class="cls-3" x="348.58" width="619.18" height="209.46"/>
  <path class="cls-1" d="m438.24 160.14c-9.17 0-18-1.01-26.48-3.04s-15.5-4.76-21.04-8.21l9.44-25.23c3.41 1.93 7.25 3.62 11.52 5.09s8.69 2.64 13.28 3.5c4.58 0.86 9.12 1.29 13.6 1.29 6.29 0 10.51-0.63 12.64-1.9s3.2-2.81 3.2-4.64c0-1.72-0.67-3.09-2-4.1s-4.08-1.92-8.24-2.74l-20.32-3.95c-10.35-2.03-18.11-5.62-23.28-10.79s-7.76-11.86-7.76-20.06c0-7.3 2.08-13.63 6.24-19s10.02-9.55 17.6-12.54c7.57-2.99 16.43-4.48 26.56-4.48 8 0 15.57 1.01 22.72 3.04s12.96 4.76 17.44 8.21l-9.44 23.71c-4.06-2.63-8.72-4.69-14-6.16s-11.12-2.2-17.52-2.2c-5.33 0-9.31 0.61-11.92 1.82-2.62 1.22-3.92 2.99-3.92 5.32 0 1.42 0.75 2.74 2.24 3.95 1.49 1.22 4.37 2.23 8.64 3.04l20 3.8c10.13 1.93 17.78 5.47 22.96 10.64 5.17 5.17 7.76 11.81 7.76 19.91 0 7.2-2.08 13.48-6.24 18.85s-9.98 9.53-17.44 12.46c-7.47 2.94-16.22 4.41-26.24 4.41z"/>
  <path class="cls-1" d="m524 158.31v-80.71h-32.64v-26.45h99.84v26.45h-32.64v80.71z"/>
  <path class="cls-1" d="m590.72 104.66c0-11.04 2.37-20.72 7.12-29.03 4.74-8.31 11.49-14.77 20.24-19.38s19.09-6.92 31.04-6.92 22.45 2.31 31.2 6.92c8.74 4.61 15.52 11.07 20.32 19.38s7.2 17.99 7.2 29.03-2.4 20.72-7.2 29.03-11.58 14.8-20.32 19.46c-8.75 4.66-19.15 6.99-31.2 6.99s-22.29-2.33-31.04-6.99-15.5-11.17-20.24-19.53c-4.75-8.36-7.12-18.01-7.12-28.96zm36.16 0c0 8.92 1.78 15.86 5.36 20.82 3.57 4.97 9.2 7.45 16.88 7.45s13.36-2.51 17.04-7.52c3.68-5.02 5.52-11.93 5.52-20.75s-1.84-15.71-5.52-20.67-9.36-7.45-17.04-7.45-13.31 2.46-16.88 7.37c-3.58 4.92-5.36 11.83-5.36 20.75z"/>
  <path class="cls-1" d="m721.12 158.31v-107.16h55.52c13.33 0 23.62 3.04 30.88 9.12 7.25 6.08 10.88 14.49 10.88 25.23 0 7.09-1.63 13.2-4.88 18.32-3.26 5.12-8.03 9.07-14.32 11.86s-13.92 4.18-22.88 4.18l1.12-4.41h9.44c4.69 0 8.9 1.29 12.64 3.88 3.73 2.58 6.82 5.95 9.28 10.11l17.44 28.88h-37.92l-19.36-33.74c-0.85-1.52-2.24-2.61-4.16-3.27s-3.9-0.99-5.92-0.99h-3.2v38h-34.56zm34.56-60.95h14.72c4.9 0 8.64-0.89 11.2-2.66s3.84-4.48 3.84-8.13-1.28-6.18-3.84-7.9-6.29-2.58-11.2-2.58h-14.72v21.28z"/>
  <path class="cls-1" d="m833.76 158.31v-107.16h83.68v24.93h-50.72v15.35h46.88v24.93h-46.88v17.02h50.72v24.93z"/>
  <path class="cls-3" d="m0 158.96v-105.71h84.02v24.59h-50.93v15.14h47.07v24.59h-47.07v16.79h50.93v24.59h-84.02z"/>
  <path class="cls-3" d="m130.28 158.96-40.81-105.71h35.66l23.94 70.62h-7.87l27.31-70.62h24.58l24.26 70.62h-7.55l26.35-70.62h33.42l-40.97 105.71h-27.47l-23.13-61.78h3.7l-23.78 61.78h-27.63z"/>
  <path class="cls-3" d="m279.21 158.96v-105.71h34.7v105.71z"/>
 </g>
</svg>
